# xmcd
#
# Track frame offsets: 
#        150
#        20502
#        42890
#
# Disc length: 880 seconds
#
# Revision: 0
# Processed by: cddbd v1.5.2PL0 Copyright (c) Steve Scherf et al.
# Submitted via: ExactAudioCopy v0.95b4
#
DISCID=1b036e03
DTITLE=Skoop On Somebody - Q
DYEAR=2008
DGENRE=JPop
TTITLE0=Q
TTITLE1=so Angeric
TTITLE2=ETERNAL LAND SCAPE
EXTD=
EXTT0=
EXTT1=
EXTT2=
PLAYORDER=
